<?xml version="1.0" encoding="UTF-8" standalone="no"?>
<!-- Created with Inkscape (http://www.inkscape.org/) -->

<svg
   width="30.48mm"
   height="128.5mm"
   viewBox="0 0 30.48 128.5"
   version="1.1"
   id="svg77"
   sodipodi:docname="rnsh.svg"
   inkscape:version="1.2.1 (9c6d41e, 2022-07-14)"
   xmlns:inkscape="http://www.inkscape.org/namespaces/inkscape"
   xmlns:sodipodi="http://sodipodi.sourceforge.net/DTD/sodipodi-0.dtd"
   xmlns="http://www.w3.org/2000/svg"
   xmlns:svg="http://www.w3.org/2000/svg">
  <sodipodi:namedview
     id="namedview79"
     pagecolor="#ffffff"
     bordercolor="#000000"
     borderopacity="0.25"
     inkscape:showpageshadow="2"
     inkscape:pageopacity="0.0"
     inkscape:pagecheckerboard="0"
     inkscape:deskcolor="#d1d1d1"
     inkscape:document-units="mm"
     showgrid="true"
     inkscape:zoom="1.2969159"
     inkscape:cx="95.996973"
     inkscape:cy="242.11285"
     inkscape:window-width="1408"
     inkscape:window-height="916"
     inkscape:window-x="104"
     inkscape:window-y="38"
     inkscape:window-maximized="0"
     inkscape:current-layer="layer2">
    <inkscape:grid
       type="xygrid"
       id="grid2308" />
  </sodipodi:namedview>
  <defs
     id="defs74">
    <rect
       x="51.374265"
       y="64.660713"
       width="3.1001712"
       height="13.286448"
       id="rect1948" />
    <rect
       x="104.96294"
       y="54.031555"
       width="20.372553"
       height="21.701198"
       id="rect1942" />
  </defs>
  <g
     inkscape:label="Layer 1"
     inkscape:groupmode="layer"
     id="layer1">
    <path
       id="rect256"
       style="fill:#808080;stroke-width:0.264583"
       d="M -0.14469401 0.14469401 L -0.14469401 128.40095 L 30.509766 128.40095 L 30.509766 0.14469401 L -0.14469401 0.14469401 z "
       inkscape:label="Background" />
    <g
       aria-label="Random Noise S&amp;H"
       id="text1888"
       style="font-size:2.82222px;display:inline;fill:#ffffff;stroke-width:0.264583"
       inkscape:label="All text"
       transform="translate(0,0.20400963)">
      <rect
         style="font-size:2.82222px;display:inline;fill:#666666;stroke-width:0.0721831"
         id="rect347"
         width="8.7724142"
         height="75.483559"
         x="17.952847"
         y="19.380915"
         inkscape:label="Marked Outputs" />
      <g
         aria-label="ÄSK"
         id="text1722"
         style="font-weight:bold;font-stretch:condensed;font-size:8.46667px;font-family:'Helvetica Neue';-inkscape-font-specification:'Helvetica Neue, Bold Condensed';fill:#cccccc;stroke-width:0.264583"
         inkscape:label="ÄSK"
         transform="translate(0,-5.3042504)">
        <path
           d="m 11.17614,119.00989 v 0.99907 h 0.948267 v -0.99907 z m -1.4562677,0 v 0.99907 h 0.9482667 v -0.99907 z m 0.6096007,5.19854 0.5842,-2.7178 h 0.01693 l 0.5842,2.7178 z m -0.160867,-3.76767 -1.6002008,6.0452 h 1.2700005 l 0.2794003,-1.27847 h 1.608667 l 0.2794,1.27847 h 1.270001 l -1.600201,-6.0452 z"
           id="path1788" />
        <path
           d="m 14.681339,124.59789 h -1.219201 v 0.24554 q 0,0.8382 0.440267,1.28693 0.448734,0.44874 1.481668,0.44874 0.9906,0 1.540934,-0.4318 0.5588,-0.44027 0.5588,-1.39701 0,-0.2794 -0.0508,-0.508 -0.0508,-0.2286 -0.186267,-0.41486 -0.127,-0.19474 -0.347133,-0.3556 -0.220134,-0.16934 -0.567267,-0.32174 l -0.939801,-0.4064 q -0.389467,-0.16086 -0.508,-0.34713 -0.118533,-0.19473 -0.118533,-0.47413 0,-0.13547 0.0254,-0.26247 0.03387,-0.127 0.110066,-0.22013 0.08467,-0.1016 0.220134,-0.16087 0.135467,-0.0593 0.338667,-0.0593 0.3556,0 0.508,0.23707 0.1524,0.2286 0.1524,0.6604 h 1.1684 v -0.16933 q 0,-0.4318 -0.143933,-0.7366 -0.135467,-0.31327 -0.389467,-0.508 -0.245533,-0.2032 -0.592667,-0.28787 -0.338667,-0.0931 -0.745067,-0.0931 -0.872067,0 -1.3716,0.44026 -0.499534,0.44027 -0.499534,1.33774 0,0.37253 0.09313,0.6604 0.09313,0.2794 0.287866,0.49953 0.2032,0.21167 0.499534,0.37253 0.296333,0.16087 0.702733,0.29634 0.304801,0.1016 0.508001,0.2032 0.211666,0.0931 0.338666,0.21166 0.127001,0.11854 0.177801,0.27094 0.05927,0.14393 0.05927,0.34713 0,0.381 -0.2286,0.56727 -0.220133,0.1778 -0.499533,0.1778 -0.237067,0 -0.397934,-0.0677 -0.1524,-0.0677 -0.245533,-0.18626 -0.09313,-0.11854 -0.127,-0.28787 -0.03387,-0.1778 -0.03387,-0.38947 z"
           id="path1790" />
        <path
           d="m 19.3126,120.44076 h -1.219201 v 6.0452 H 19.3126 v -1.79493 l 0.448733,-0.6858 1.244601,2.48073 h 1.3716 l -1.8288,-3.4544 1.642534,-2.5908 h -1.320801 l -1.540934,2.42147 H 19.3126 Z"
           id="path1792" />
      </g>
      <g
         aria-label="Spread"
         id="text1448"
         style="font-weight:bold;font-stretch:condensed;font-size:2.82223px;font-family:'Helvetica Neue';-inkscape-font-specification:'Helvetica Neue, Bold Condensed'"
         inkscape:label="Spread"
         transform="translate(-1.4280674,-2.4481156)">
        <path
           d="m 19.849407,111.77995 h -0.406401 v 0.0819 q 0,0.2794 0.146756,0.42898 0.149578,0.14957 0.49389,0.14957 0.330201,0 0.513646,-0.14393 0.186267,-0.14676 0.186267,-0.46567 0,-0.0931 -0.01693,-0.16933 -0.01693,-0.0762 -0.06209,-0.13829 -0.04233,-0.0649 -0.115712,-0.11853 -0.07338,-0.0564 -0.189089,-0.10725 l -0.313268,-0.13547 q -0.129822,-0.0536 -0.169334,-0.11571 -0.03951,-0.0649 -0.03951,-0.15804 0,-0.0452 0.0085,-0.0875 0.01129,-0.0423 0.03669,-0.0734 0.02822,-0.0339 0.07338,-0.0536 0.04516,-0.0198 0.112889,-0.0198 0.118534,0 0.169334,0.079 0.0508,0.0762 0.0508,0.22014 h 0.389468 v -0.0564 q 0,-0.14393 -0.04798,-0.24553 -0.04516,-0.10442 -0.129823,-0.16933 -0.08184,-0.0677 -0.197556,-0.096 -0.112889,-0.031 -0.248356,-0.031 -0.29069,0 -0.457201,0.14675 -0.166512,0.14676 -0.166512,0.44591 0,0.12418 0.03104,0.22014 0.03104,0.0931 0.09596,0.16651 0.06773,0.0706 0.166512,0.12418 0.09878,0.0536 0.234245,0.0988 0.1016,0.0339 0.169334,0.0677 0.07056,0.031 0.112889,0.0706 0.04233,0.0395 0.05927,0.0903 0.01975,0.048 0.01975,0.11571 0,0.127 -0.0762,0.18909 -0.07338,0.0593 -0.166511,0.0593 -0.07902,0 -0.132645,-0.0226 -0.0508,-0.0226 -0.08185,-0.0621 -0.03104,-0.0395 -0.04233,-0.096 -0.01129,-0.0593 -0.01129,-0.12982 z"
           id="path1583" />
        <path
           d="m 20.975474,110.89095 v 2.00661 h 0.389468 v -0.62936 h 0.0056 q 0.06209,0.0903 0.13829,0.13264 0.07902,0.0395 0.189089,0.0395 0.23989,0 0.352779,-0.18344 0.112889,-0.18345 0.112889,-0.60678 0,-0.42334 -0.112889,-0.6096 -0.112889,-0.18909 -0.352779,-0.18909 -0.118534,0 -0.200378,0.048 -0.07902,0.0451 -0.143934,0.1524 h -0.0056 v -0.16087 z m 0.389468,0.75918 q 0,-0.24836 0.03669,-0.37253 0.03951,-0.12701 0.169334,-0.12701 0.127,0 0.163689,0.12701 0.03951,0.12417 0.03951,0.37253 0,0.24836 -0.03951,0.37536 -0.03669,0.12417 -0.163689,0.12417 -0.129823,0 -0.169334,-0.12417 -0.03669,-0.127 -0.03669,-0.37536 z"
           id="path1585" />
        <path
           d="m 22.386584,110.89095 v 1.51836 h 0.389467 v -0.91158 q 0,-0.0762 0.0254,-0.127 0.0254,-0.0536 0.06773,-0.0847 0.04233,-0.0339 0.09313,-0.048 0.0508,-0.0141 0.1016,-0.0141 0.03104,0 0.05927,0.003 0.03104,0 0.06209,0.003 v -0.37254 q -0.01693,-0.003 -0.03669,-0.003 -0.01693,-0.003 -0.03387,-0.003 -0.121356,0 -0.206023,0.0677 -0.08467,0.0649 -0.143934,0.17498 h -0.0056 v -0.2032 z"
           id="path1587" />
        <path
           d="m 24.057339,111.47797 h -0.397934 v -0.0593 q 0,-0.0536 0.0085,-0.10725 0.01129,-0.0536 0.03387,-0.096 0.02258,-0.0452 0.05927,-0.0706 0.03951,-0.0282 0.09878,-0.0282 0.05927,0 0.09596,0.0254 0.03951,0.0226 0.05927,0.0706 0.02258,0.0452 0.03104,0.11289 0.0085,0.0649 0.01129,0.1524 z m -0.397934,0.23143 h 0.770469 v -0.0875 q 0,-0.17498 -0.02258,-0.31609 -0.02258,-0.14394 -0.08467,-0.24271 -0.06209,-0.1016 -0.172156,-0.15523 -0.107245,-0.0564 -0.276579,-0.0564 -0.197556,0 -0.31609,0.0649 -0.118533,0.0649 -0.183445,0.17498 -0.06209,0.11006 -0.08467,0.25118 -0.01976,0.14111 -0.01976,0.29351 0,0.14393 0.01129,0.28787 0.01411,0.14393 0.07056,0.25964 0.05644,0.11571 0.174978,0.18627 0.118534,0.0705 0.330201,0.0705 0.279401,0 0.409223,-0.13829 0.129823,-0.13828 0.141112,-0.40357 h -0.349957 q -0.01693,0.14393 -0.06209,0.21449 -0.04516,0.0706 -0.143934,0.0706 -0.05362,0 -0.09031,-0.0282 -0.03669,-0.031 -0.05927,-0.079 -0.02258,-0.0508 -0.03387,-0.11289 -0.0085,-0.0649 -0.0085,-0.13265 z"
           id="path1589" />
        <path
           d="m 25.341452,111.65013 v 0.29916 q 0,0.0621 -0.02258,0.10724 -0.02258,0.0452 -0.05927,0.0734 -0.03387,0.0282 -0.0762,0.0423 -0.04233,0.0113 -0.08184,0.0113 -0.07902,0 -0.112889,-0.0621 -0.03387,-0.0621 -0.03387,-0.14958 0,-0.1016 0.0508,-0.16086 0.0508,-0.0593 0.169333,-0.0847 0.03669,-0.008 0.08185,-0.0254 0.04516,-0.0198 0.08467,-0.0508 z m -0.711202,-0.29351 h 0.349957 v -0.0423 q 0,-0.0903 0.04516,-0.14393 0.04516,-0.0536 0.135467,-0.0536 0.09878,0 0.13829,0.0508 0.04233,0.048 0.04233,0.13547 0,0.0762 -0.03387,0.11571 -0.03387,0.0395 -0.121356,0.0621 l -0.220134,0.0593 q -0.1016,0.0282 -0.174978,0.0649 -0.07056,0.0367 -0.118534,0.0931 -0.04516,0.0536 -0.06773,0.13264 -0.02258,0.0762 -0.02258,0.18345 0,0.0762 0.01976,0.15522 0.01975,0.0762 0.06209,0.13829 0.04233,0.0621 0.112889,0.0988 0.07056,0.0339 0.172156,0.0339 0.141112,0 0.228601,-0.0339 0.09031,-0.0367 0.158045,-0.15523 h 0.0056 q 0.0085,0.0395 0.01693,0.0819 0.01129,0.0395 0.03105,0.0762 h 0.372534 q -0.02822,-0.0677 -0.03951,-0.127 -0.0085,-0.0593 -0.0085,-0.16651 v -0.79869 q 0,-0.1016 -0.02258,-0.18627 -0.01976,-0.0875 -0.07902,-0.14958 -0.05927,-0.0621 -0.166512,-0.096 -0.107244,-0.0339 -0.282223,-0.0339 -0.110066,0 -0.208845,0.0254 -0.09596,0.0226 -0.169333,0.079 -0.07056,0.0536 -0.11289,0.14393 -0.04233,0.0875 -0.04233,0.22014 z"
           id="path1591" />
        <path
           d="m 26.769498,112.24844 v 0.16087 h 0.372534 v -2.01507 h -0.389468 v 0.63782 h -0.0056 q -0.06209,-0.0903 -0.141112,-0.13547 -0.0762,-0.0452 -0.186267,-0.0452 -0.239889,0 -0.352778,0.18909 -0.11289,0.18626 -0.11289,0.6096 0,0.42333 0.11289,0.60678 0.112889,0.18344 0.352778,0.18344 0.118534,0 0.197556,-0.0423 0.08184,-0.0423 0.146756,-0.14958 z m -0.426157,-0.59831 q 0,-0.24836 0.03669,-0.37253 0.03951,-0.12701 0.166512,-0.12701 0.129822,0 0.166511,0.12701 0.03951,0.12417 0.03951,0.37253 0,0.24836 -0.03951,0.37536 -0.03669,0.12417 -0.166511,0.12417 -0.127001,0 -0.166512,-0.12417 -0.03669,-0.127 -0.03669,-0.37536 z"
           id="path1593" />
      </g>
      <g
         aria-label="CV"
         id="text1554"
         style="font-weight:bold;font-stretch:condensed;font-size:2.82223px;font-family:'Helvetica Neue';-inkscape-font-specification:'Helvetica Neue, Bold Condensed'"
         inkscape:label="CV"
         transform="translate(1.4280674,-2.4481156)">
        <path
           d="m 6.3061419,111.2784 h 0.4064012 q 0,-0.11007 -0.016933,-0.23425 -0.014111,-0.127 -0.0762,-0.23424 -0.062089,-0.11007 -0.1890894,-0.18063 -0.1241782,-0.0705 -0.3414899,-0.0705 -0.2286006,0 -0.3640677,0.079 -0.135467,0.0762 -0.208845,0.21449 -0.070556,0.13829 -0.093134,0.33302 -0.019756,0.19191 -0.019756,0.42052 0,0.23142 0.019756,0.42333 0.022578,0.19191 0.093134,0.3302 0.073378,0.13829 0.208845,0.21167 0.1354671,0.0734 0.3640677,0.0734 0.2003783,0 0.3245565,-0.0621 0.1270003,-0.0621 0.1947338,-0.17216 0.070556,-0.11007 0.095956,-0.25682 0.0254,-0.14676 0.0254,-0.31045 H 6.3230753 q 0,0.16369 -0.019756,0.26529 -0.019756,0.0988 -0.053622,0.15523 -0.033867,0.0536 -0.081845,0.0734 -0.045156,0.0169 -0.098778,0.0169 -0.064911,0 -0.1157114,-0.0254 -0.047978,-0.0282 -0.081845,-0.10443 -0.031044,-0.079 -0.047978,-0.22013 -0.014111,-0.14111 -0.014111,-0.36971 0,-0.21449 0.011289,-0.36125 0.011289,-0.14958 0.039511,-0.23989 0.028222,-0.0931 0.0762,-0.13264 0.0508,-0.0423 0.1270003,-0.0423 0.1382893,0 0.1890895,0.1016 0.053622,0.0988 0.053622,0.31892 z"
           id="path1578" />
        <path
           d="M 7.2628744,110.59824 H 6.828251 l 0.4628457,2.01507 H 7.8132093 L 8.276055,110.59824 H 7.8555427 l -0.2991564,1.49014 h -0.00847 z"
           id="path1580" />
      </g>
      <g
         aria-label="Out"
         id="text2063"
         style="font-weight:bold;font-stretch:condensed;font-size:2.82223px;font-family:'Helvetica Neue';-inkscape-font-specification:'Helvetica Neue, Bold Condensed';stroke-width:0.0700042"
         inkscape:label="Out text"
         transform="translate(1.3538821,1.2240577)">
        <path
           d="m 19.605372,14.108565 q 0,-0.2032 0.0085,-0.344312 0.01129,-0.141111 0.03951,-0.231423 0.03104,-0.09031 0.08467,-0.129822 0.05645,-0.04233 0.146756,-0.04233 0.09031,0 0.143934,0.04233 0.05644,0.03951 0.08467,0.129822 0.03104,0.09031 0.03951,0.231423 0.01129,0.141112 0.01129,0.344312 0,0.203201 -0.01129,0.347134 -0.0085,0.141112 -0.03951,0.231423 -0.02822,0.08749 -0.08467,0.129823 -0.05362,0.03951 -0.143934,0.03951 -0.09031,0 -0.146756,-0.03951 -0.05362,-0.04233 -0.08467,-0.129823 -0.02822,-0.09031 -0.03951,-0.231423 -0.0085,-0.143933 -0.0085,-0.347134 z m -0.406401,0 q 0,0.231423 0.01976,0.423335 0.02258,0.191911 0.09313,0.330201 0.07338,0.138289 0.208845,0.211667 0.135467,0.07338 0.364068,0.07338 0.228601,0 0.364068,-0.07338 0.135467,-0.07338 0.206022,-0.211667 0.07338,-0.13829 0.09313,-0.330201 0.02258,-0.191912 0.02258,-0.423335 0,-0.228601 -0.02258,-0.420512 -0.01976,-0.194734 -0.09313,-0.333023 -0.07055,-0.13829 -0.206022,-0.21449 -0.135467,-0.07902 -0.364068,-0.07902 -0.228601,0 -0.364068,0.07902 -0.135467,0.0762 -0.208845,0.21449 -0.07055,0.138289 -0.09313,0.333023 -0.01976,0.191911 -0.01976,0.420512 z"
           id="path2074" />
        <path
           d="m 21.57811,14.938301 v 0.1778 h 0.372535 v -1.51836 h -0.389468 v 1.007537 q 0,0.251178 -0.206023,0.251178 -0.08749,0 -0.127,-0.04516 -0.03951,-0.04798 -0.03951,-0.166511 v -1.047048 h -0.389468 v 1.12607 q 0,0.228601 0.09878,0.327379 0.1016,0.09596 0.287867,0.09596 0.127001,0 0.225779,-0.04798 0.09878,-0.04798 0.160867,-0.160867 z"
           id="path2076" />
        <path
           d="m 22.294951,13.163118 v 0.434623 h -0.197556 v 0.26529 h 0.197556 v 0.869247 q 0,0.115711 0.01411,0.191912 0.01411,0.0762 0.0508,0.124178 0.03951,0.04515 0.110067,0.06209 0.07338,0.01411 0.186267,0.01411 0.06773,0 0.127,-0.0056 0.06209,-0.0028 0.127001,-0.0028 v -0.270934 q -0.01976,0.0028 -0.04233,0.0056 -0.02258,0 -0.04516,0 -0.08467,0 -0.112889,-0.03669 -0.0254,-0.03951 -0.0254,-0.129823 v -0.821269 h 0.225779 v -0.26529 h -0.225779 v -0.434623 z"
           id="path2078" />
      </g>
      <g
         aria-label="Gate"
         id="text2059"
         style="font-weight:bold;font-stretch:condensed;font-size:2.82223px;font-family:'Helvetica Neue';-inkscape-font-specification:'Helvetica Neue, Bold Condensed';stroke-width:0.0700042"
         inkscape:label="Gate text"
         transform="translate(0.02191834,1.2240577)">
        <path
           d="m 6.7775335,13.582163 h 0.3894677 q 0,-0.307623 -0.1467559,-0.471313 -0.146756,-0.166511 -0.4797791,-0.166511 -0.1947339,0 -0.3245565,0.06491 -0.1298226,0.06491 -0.208845,0.194734 -0.079022,0.127 -0.1128892,0.318912 -0.031045,0.191912 -0.031045,0.445912 0,0.262468 0.022578,0.462846 0.022578,0.197556 0.087489,0.333023 0.067734,0.135467 0.183445,0.200379 0.1185336,0.06491 0.3048008,0.06491 0.1439337,0 0.245534,-0.04798 0.1044225,-0.0508 0.1778005,-0.169334 h 0.00564 v 0.186267 H 7.1895791 V 13.912364 H 6.5319995 v 0.299156 h 0.2681118 v 0.206023 q 0,0.08184 -0.0254,0.143934 -0.0254,0.05927 -0.064911,0.09878 -0.036689,0.03951 -0.081845,0.05927 -0.042333,0.01975 -0.079022,0.01975 -0.087489,0 -0.1439337,-0.05362 -0.053622,-0.05645 -0.084667,-0.158045 -0.028222,-0.104423 -0.039511,-0.251179 -0.011289,-0.146756 -0.011289,-0.327378 0,-0.378179 0.064911,-0.541868 0.064911,-0.16369 0.2116672,-0.16369 0.062089,0 0.1044225,0.03387 0.045156,0.03105 0.073378,0.08184 0.028222,0.04798 0.039511,0.107244 0.014111,0.05927 0.014111,0.115712 z"
           id="path2065" />
        <path
           d="m 8.1491366,14.239742 v 0.299157 q 0,0.06209 -0.022578,0.107245 -0.022578,0.04516 -0.059267,0.07338 -0.033867,0.02822 -0.0762,0.04233 -0.042334,0.01129 -0.081845,0.01129 -0.079022,0 -0.1128892,-0.06209 -0.033867,-0.06209 -0.033867,-0.149578 0,-0.101601 0.0508,-0.160867 0.0508,-0.05927 0.1693338,-0.08467 0.036689,-0.0085 0.081845,-0.0254 0.045156,-0.01976 0.084667,-0.0508 z M 7.4379347,13.946231 h 0.3499565 v -0.04233 q 0,-0.09031 0.045156,-0.143934 0.045156,-0.05362 0.135467,-0.05362 0.098778,0 0.1382893,0.0508 0.042333,0.04798 0.042333,0.135467 0,0.0762 -0.033867,0.115712 -0.033867,0.03951 -0.1213559,0.06209 l -0.220134,0.05927 q -0.1016002,0.02822 -0.1749782,0.06491 -0.070556,0.03669 -0.1185337,0.09313 -0.045156,0.05362 -0.067734,0.132645 -0.022578,0.0762 -0.022578,0.183445 0,0.0762 0.019756,0.155223 0.019756,0.0762 0.062089,0.138289 0.042333,0.06209 0.1128892,0.09878 0.070556,0.03387 0.1721561,0.03387 0.1411115,0 0.2286006,-0.03387 0.090311,-0.03669 0.1580449,-0.155223 h 0.00564 q 0.00847,0.03951 0.016933,0.08184 0.011289,0.03951 0.031045,0.0762 h 0.3725343 q -0.028222,-0.06773 -0.039511,-0.127 -0.00847,-0.05927 -0.00847,-0.166512 v -0.798691 q 0,-0.1016 -0.022578,-0.186267 -0.019756,-0.08749 -0.079023,-0.149578 -0.059267,-0.06209 -0.1665115,-0.09596 -0.1072448,-0.03387 -0.2822231,-0.03387 -0.1100669,0 -0.208845,0.0254 -0.095956,0.02258 -0.1693338,0.07902 -0.070556,0.05362 -0.1128892,0.143934 -0.042333,0.08749 -0.042333,0.220134 z"
           id="path2067" />
        <path
           d="m 8.8829136,13.045939 v 0.434624 H 8.6853575 v 0.265289 h 0.1975561 v 0.869247 q 0,0.115711 0.014111,0.191912 0.014111,0.0762 0.0508,0.124178 0.039511,0.04516 0.110067,0.06209 0.073378,0.01411 0.1862672,0.01411 0.067734,0 0.1270003,-0.0056 0.062089,-0.0028 0.1270004,-0.0028 v -0.270934 q -0.019756,0.0028 -0.042333,0.0056 -0.022578,0 -0.045156,0 -0.084667,0 -0.1128892,-0.03669 -0.0254,-0.03951 -0.0254,-0.129823 v -0.82129 H 9.4981598 V 13.480563 H 9.2723814 v -0.434624 z"
           id="path2069" />
        <path
           d="M 10.364583,14.067586 H 9.9666485 v -0.05927 q 0,-0.05362 0.00847,-0.107245 0.011289,-0.05362 0.033867,-0.09596 0.02258,-0.04516 0.05927,-0.07056 0.03951,-0.02822 0.09878,-0.02822 0.05927,0 0.09596,0.0254 0.03951,0.02258 0.05927,0.07056 0.02258,0.04516 0.03104,0.112889 0.0085,0.06491 0.01129,0.1524 z m -0.3979345,0.231423 h 0.7704685 v -0.08749 q 0,-0.174978 -0.02258,-0.31609 -0.02258,-0.143933 -0.08467,-0.242711 -0.06209,-0.101601 -0.172156,-0.155223 -0.107245,-0.05645 -0.276579,-0.05645 -0.1975561,0 -0.3160898,0.06491 -0.1185336,0.06491 -0.1834449,0.174978 -0.062089,0.110067 -0.084667,0.251178 -0.019756,0.141112 -0.019756,0.293512 0,0.143934 0.011289,0.287868 0.014111,0.143934 0.070556,0.259645 0.056445,0.115711 0.1749783,0.186267 0.1185337,0.07056 0.3302014,0.07056 0.2794,0 0.409223,-0.138289 0.129823,-0.13829 0.141111,-0.403579 h -0.349956 q -0.01693,0.143933 -0.06209,0.214489 -0.04516,0.07056 -0.143934,0.07056 -0.05362,0 -0.09031,-0.02822 -0.03669,-0.03105 -0.05927,-0.07902 -0.022578,-0.0508 -0.033867,-0.112889 -0.00847,-0.06491 -0.00847,-0.132645 z"
           id="path2071" />
      </g>
      <g
         inkscape:groupmode="layer"
         id="layer4"
         inkscape:label="Modulename">
        <path
           d="M 4.2423788,7.3769642 V 9.3920294 H 4.6487785 V 8.5397189 h 0.217311 q 0.1269999,0 0.180622,0.067733 0.053622,0.067733 0.059267,0.1862665 l 0.011289,0.3866445 q 0.00282,0.059267 0.011289,0.115711 0.00847,0.053622 0.039511,0.095956 H 5.6083333 V 9.375096 Q 5.5518889,9.3440516 5.5349556,9.259385 5.5236667,9.1747184 5.5180223,9.0138519 5.5152001,8.9320075 5.5123779,8.8670964 5.5095556,8.7993632 5.5039112,8.7429187 5.4869779,8.5735855 5.4164224,8.4973856 5.3458669,8.4211857 5.193467,8.3986079 v -0.00564 q 0.1721554,-0.036689 0.2539998,-0.1636888 0.081844,-0.1298221 0.081844,-0.333022 0,-0.2624664 -0.141111,-0.3894663 Q 5.2470892,7.3769642 4.9930894,7.3769642 Z M 4.6487785,8.2574969 V 7.6761196 h 0.191911 q 0.282222,0 0.282222,0.2793997 0,0.1636888 -0.079022,0.2342443 -0.079022,0.067733 -0.2257776,0.067733 z"
           style="font-weight:bold;font-stretch:condensed;font-size:2.82222px;font-family:'Helvetica Neue';-inkscape-font-specification:'Helvetica Neue, Bold Condensed';display:inline;fill:#ffffff;stroke-width:0.264583"
           id="path2028" />
        <path
           d="m 6.5086208,8.6328522 v 0.2991553 q 0,0.062089 -0.022578,0.1072444 -0.022578,0.045155 -0.059267,0.073378 -0.033867,0.028222 -0.0762,0.042333 -0.042333,0.011289 -0.081844,0.011289 -0.079022,0 -0.1128888,-0.062089 -0.033867,-0.062089 -0.033867,-0.1495776 0,-0.1016 0.0508,-0.1608666 0.0508,-0.059267 0.1693332,-0.084667 0.036689,-0.00847 0.081844,-0.0254 0.045156,-0.019755 0.084668,-0.0508 z M 5.7974214,8.3393413 h 0.3499553 v -0.042333 q 0,-0.090311 0.045155,-0.1439332 0.045156,-0.053622 0.1354666,-0.053622 0.098778,0 0.1382887,0.0508 0.042333,0.047978 0.042333,0.1354666 0,0.0762 -0.033867,0.115711 -0.033867,0.039511 -0.1213555,0.062089 l -0.2201331,0.059267 q -0.1015999,0.028222 -0.1749777,0.064911 -0.070556,0.036689 -0.1185332,0.093133 -0.045155,0.053622 -0.067733,0.1326444 -0.022578,0.0762 -0.022578,0.1834443 0,0.0762 0.019756,0.1552221 0.019755,0.0762 0.062089,0.1382887 0.042333,0.062089 0.1128888,0.098778 0.070556,0.033867 0.1721555,0.033867 0.141111,0 0.2285998,-0.033867 0.090311,-0.036689 0.1580443,-0.1552221 h 0.00564 q 0.00847,0.039511 0.016933,0.081844 0.011289,0.039511 0.031044,0.0762 h 0.372533 q -0.028222,-0.067733 -0.039511,-0.1269999 -0.00847,-0.059267 -0.00847,-0.166511 v -0.798689 q 0,-0.1015999 -0.022578,-0.1862665 Q 6.8388206,8.0260748 6.779554,7.963986 6.7202874,7.9018972 6.613043,7.8680305 6.5057986,7.8341639 6.330821,7.8341639 q -0.1100666,0 -0.2088443,0.0254 -0.095956,0.022578 -0.1693332,0.079022 -0.070555,0.053622 -0.1128888,0.1439332 -0.042333,0.087489 -0.042333,0.2201332 z"
           style="font-weight:bold;font-stretch:condensed;font-size:2.82222px;font-family:'Helvetica Neue';-inkscape-font-specification:'Helvetica Neue, Bold Condensed';display:inline;fill:#ffffff;stroke-width:0.264583"
           id="path2030" />
        <path
           d="M 7.1577285,7.873675 V 9.3920294 H 7.5471949 V 8.3844968 q 0,-0.2511776 0.2060221,-0.2511776 0.087489,0 0.1269999,0.047978 0.039511,0.045155 0.039511,0.1636887 V 9.3920294 H 8.3091943 V 8.2659636 q 0,-0.2285999 -0.1015999,-0.3301998 -0.098778,-0.1015999 -0.2850442,-0.1015999 -0.1269999,0 -0.2257776,0.053622 -0.098778,0.0508 -0.1608666,0.1636887 H 7.530266 V 7.873675 Z"
           style="font-weight:bold;font-stretch:condensed;font-size:2.82222px;font-family:'Helvetica Neue';-inkscape-font-specification:'Helvetica Neue, Bold Condensed';display:inline;fill:#ffffff;stroke-width:0.264583"
           id="path2032" />
        <path
           d="M 9.347766,9.2311628 V 9.3920294 H 9.720299 V 7.3769642 H 9.3308326 V 8.014786 h -0.00564 Q 9.2630996,7.924475 9.1840772,7.8793194 q -0.0762,-0.045155 -0.1862665,-0.045155 -0.2398887,0 -0.3527775,0.1890887 -0.1128888,0.1862666 -0.1128888,0.6095996 0,0.423333 0.1128888,0.6067773 0.1128888,0.1834443 0.3527775,0.1834443 0.1185332,0 0.1975554,-0.042333 0.081844,-0.042333 0.1467554,-0.1495777 z M 8.9216107,8.6328522 q 0,-0.2483554 0.036689,-0.3725331 0.039511,-0.1269999 0.166511,-0.1269999 0.1298221,0 0.166511,0.1269999 0.039511,0.1241777 0.039511,0.3725331 0,0.2483553 -0.039511,0.3753552 -0.036689,0.1241777 -0.166511,0.1241777 -0.1269999,0 -0.166511,-0.1241777 -0.036689,-0.1269999 -0.036689,-0.3753552 z"
           style="font-weight:bold;font-stretch:condensed;font-size:2.82222px;font-family:'Helvetica Neue';-inkscape-font-specification:'Helvetica Neue, Bold Condensed';display:inline;fill:#ffffff;stroke-width:0.264583"
           id="path2034" />
        <path
           d="m 10.318604,8.6328522 q 0,-0.1157111 0.0056,-0.2144888 0.0056,-0.098778 0.0254,-0.1693332 0.02258,-0.070556 0.06491,-0.1100665 0.04233,-0.039511 0.112889,-0.039511 0.118533,0 0.163688,0.1241777 0.04516,0.1241776 0.04516,0.4092219 0,0.2850442 -0.04516,0.4092219 -0.04515,0.1241777 -0.163688,0.1241777 -0.07056,0 -0.112889,-0.039511 -0.04233,-0.039511 -0.06491,-0.1100666 -0.01976,-0.070556 -0.0254,-0.1693332 -0.0056,-0.098778 -0.0056,-0.2144889 z m -0.3894661,0 q 0,0.1975554 0.028222,0.3499553 0.028222,0.1495776 0.095956,0.2511775 0.06773,0.098778 0.183444,0.1467555 0.115711,0.045155 0.290689,0.042333 0.166511,0 0.279399,-0.047978 0.115711,-0.047978 0.186267,-0.1467554 0.07056,-0.1015999 0.1016,-0.2511776 0.03104,-0.1495776 0.03104,-0.3443108 0,-0.2003777 -0.02822,-0.3499553 -0.02822,-0.1495777 -0.09596,-0.2511776 -0.06773,-0.1015999 -0.183445,-0.1495777 -0.115711,-0.0508 -0.290688,-0.047978 -0.166511,0 -0.282222,0.053622 -0.112889,0.0508 -0.183445,0.1523998 -0.070555,0.098778 -0.1016,0.2483554 Q 9.92913,8.438118 9.92913,8.6328512 Z"
           style="font-weight:bold;font-stretch:condensed;font-size:2.82222px;font-family:'Helvetica Neue';-inkscape-font-specification:'Helvetica Neue, Bold Condensed';display:inline;fill:#ffffff;stroke-width:0.264583"
           id="path2036" />
        <path
           d="m 11.334602,7.873675 v 1.5183544 h 0.389467 V 8.3929635 q 0,-0.1354666 0.05362,-0.1975554 0.05644,-0.062089 0.149577,-0.062089 0.08184,0 0.115711,0.0508 0.03669,0.0508 0.03669,0.1467554 v 1.0611548 h 0.389467 V 8.3929635 q 0,-0.1354666 0.05362,-0.1975554 0.05644,-0.062089 0.149578,-0.062089 0.08184,0 0.115711,0.0508 0.03669,0.0508 0.03669,0.1467554 V 9.3920293 H 13.2142 v -1.103488 q 0,-0.2201332 -0.09313,-0.3358442 -0.09031,-0.1185332 -0.285045,-0.1185332 -0.138288,0 -0.239888,0.062089 -0.09878,0.059267 -0.143934,0.1806221 h -0.0056 q -0.03104,-0.1185332 -0.124178,-0.1806221 -0.09031,-0.062089 -0.225777,-0.062089 -0.127,0 -0.220134,0.045155 -0.09031,0.045155 -0.163688,0.1495777 h -0.0056 V 7.873675 Z"
           style="font-weight:bold;font-stretch:condensed;font-size:2.82222px;font-family:'Helvetica Neue';-inkscape-font-specification:'Helvetica Neue, Bold Condensed';display:inline;fill:#ffffff;stroke-width:0.264583"
           id="path2038" />
        <path
           d="m 14.630953,7.3769642 h -0.468488 v 2.0150652 h 0.372533 V 7.9809193 h 0.0056 l 0.496711,1.4111101 h 0.462844 V 7.3769642 H 15.12762 v 1.3800656 h -0.0056 z"
           style="font-weight:bold;font-stretch:condensed;font-size:2.82222px;font-family:'Helvetica Neue';-inkscape-font-specification:'Helvetica Neue, Bold Condensed';display:inline;fill:#ffffff;stroke-width:0.264583"
           id="path2040" />
        <path
           d="m 16.109794,8.6328522 q 0,-0.1157111 0.0056,-0.2144888 0.0056,-0.098778 0.0254,-0.1693332 0.02258,-0.070556 0.06491,-0.1100665 0.04233,-0.039511 0.112889,-0.039511 0.118533,0 0.163689,0.1241777 0.04516,0.1241776 0.04516,0.4092219 0,0.2850442 -0.04516,0.4092219 -0.04516,0.1241777 -0.163689,0.1241777 -0.07056,0 -0.112889,-0.039511 -0.04233,-0.039511 -0.06491,-0.1100666 -0.01976,-0.070556 -0.0254,-0.1693332 -0.0056,-0.098778 -0.0056,-0.2144889 z m -0.389466,0 q 0,0.1975554 0.02822,0.3499553 0.02822,0.1495776 0.09596,0.2511775 0.06773,0.098778 0.183444,0.1467555 0.115711,0.045155 0.290689,0.042333 0.166511,0 0.2794,-0.047978 0.115711,-0.047978 0.186266,-0.1467554 0.07056,-0.1015999 0.1016,-0.2511776 0.03104,-0.1495776 0.03104,-0.3443108 0,-0.2003777 -0.02822,-0.3499553 -0.02822,-0.1495777 -0.09596,-0.2511776 -0.06773,-0.1015999 -0.183445,-0.1495777 -0.115711,-0.0508 -0.290688,-0.047978 -0.166511,0 -0.282222,0.053622 -0.112889,0.0508 -0.183445,0.1523998 -0.07055,0.098778 -0.101599,0.2483554 -0.03104,0.1495777 -0.03104,0.3443119 z"
           style="font-weight:bold;font-stretch:condensed;font-size:2.82222px;font-family:'Helvetica Neue';-inkscape-font-specification:'Helvetica Neue, Bold Condensed';display:inline;fill:#ffffff;stroke-width:0.264583"
           id="path2042" />
        <path
           d="M 17.139904,7.3543865 V 7.6874084 H 17.52937 V 7.3543865 Z m 0,0.5192885 V 9.3920294 H 17.52937 V 7.873675 Z"
           style="font-weight:bold;font-stretch:condensed;font-size:2.82222px;font-family:'Helvetica Neue';-inkscape-font-specification:'Helvetica Neue, Bold Condensed';display:inline;fill:#ffffff;stroke-width:0.264583"
           id="path2044" />
        <path
           d="m 18.088169,8.8953186 h -0.349955 v 0.053622 q 0,0.1100666 0.0254,0.2003776 0.0254,0.087489 0.08749,0.1495777 0.06491,0.062089 0.172155,0.093133 0.110067,0.031044 0.273755,0.031044 0.124178,0 0.225778,-0.0254 0.104422,-0.0254 0.1778,-0.084667 0.0762,-0.059267 0.118533,-0.1467554 0.04233,-0.090311 0.04233,-0.2116665 0,-0.1721555 -0.0762,-0.2709332 -0.0762,-0.1015999 -0.259644,-0.1636887 l -0.234244,-0.079022 q -0.09878,-0.031044 -0.135467,-0.0762 -0.03387,-0.045156 -0.03387,-0.1016 0,-0.081844 0.05362,-0.1213554 0.05644,-0.042333 0.129822,-0.042333 0.09596,0 0.132644,0.056444 0.03951,0.053622 0.03951,0.1721554 h 0.349956 v -0.062089 q 0,-0.2060221 -0.127,-0.3189109 -0.127,-0.1128888 -0.392289,-0.1128888 -0.149577,0 -0.256822,0.036689 -0.104422,0.036689 -0.172155,0.098778 -0.06773,0.062089 -0.09878,0.1467555 -0.03104,0.081844 -0.03104,0.1749776 0,0.1608666 0.08184,0.2652887 0.08184,0.1015999 0.242711,0.1580443 l 0.273755,0.098778 q 0.05645,0.022578 0.09878,0.062089 0.04233,0.036689 0.04233,0.1100666 0,0.090311 -0.05362,0.1354665 -0.05362,0.045156 -0.143933,0.045156 -0.09878,0 -0.1524,-0.059267 -0.0508,-0.062089 -0.0508,-0.1608665 z"
           style="font-weight:bold;font-stretch:condensed;font-size:2.82222px;font-family:'Helvetica Neue';-inkscape-font-specification:'Helvetica Neue, Bold Condensed';display:inline;fill:#ffffff;stroke-width:0.264583"
           id="path2046" />
        <path
           d="m 19.787141,8.4606967 h -0.397933 v -0.059267 q 0,-0.053622 0.0085,-0.1072443 0.01129,-0.053622 0.03387,-0.095955 0.02258,-0.045156 0.05927,-0.070556 0.03951,-0.028222 0.09878,-0.028222 0.05927,0 0.09596,0.0254 0.03951,0.022578 0.05927,0.070555 0.02258,0.045155 0.03104,0.1128888 0.0085,0.064911 0.01129,0.1523998 z m -0.397933,0.2314221 h 0.770466 v -0.087489 q 0,-0.1749777 -0.02258,-0.3160887 -0.02257,-0.143933 -0.08466,-0.2427107 -0.06209,-0.1015999 -0.172156,-0.1552221 -0.107244,-0.056444 -0.276577,-0.056444 -0.197556,0 -0.316089,0.064911 -0.118533,0.064911 -0.183444,0.1749777 -0.06209,0.1100666 -0.08467,0.2511776 -0.01975,0.141111 -0.01975,0.2935109 0,0.1439332 0.01129,0.2878664 0.01411,0.1439332 0.07056,0.2596443 0.05644,0.115711 0.174978,0.1862665 0.118533,0.070556 0.330199,0.070556 0.2794,0 0.409222,-0.1382888 0.129822,-0.1382888 0.141111,-0.4035775 h -0.349955 q -0.01693,0.1439333 -0.06209,0.2144888 -0.04516,0.070556 -0.143933,0.070556 -0.05362,0 -0.09031,-0.028222 -0.03669,-0.031045 -0.05927,-0.079022 -0.02258,-0.0508 -0.03387,-0.1128888 -0.0085,-0.064911 -0.0085,-0.1326443 z"
           style="font-weight:bold;font-stretch:condensed;font-size:2.82222px;font-family:'Helvetica Neue';-inkscape-font-specification:'Helvetica Neue, Bold Condensed';display:inline;fill:#ffffff;stroke-width:0.264583"
           id="path2048" />
        <path
           d="m 21.378871,8.7626743 h -0.4064 v 0.081844 q 0,0.2793998 0.146756,0.4289774 0.149577,0.1495777 0.493888,0.1495777 0.3302,0 0.513644,-0.1439332 0.186267,-0.1467555 0.186267,-0.4656663 0,-0.093133 -0.01693,-0.1693333 -0.01693,-0.0762 -0.06209,-0.1382887 -0.04233,-0.064911 -0.115711,-0.1185333 -0.07338,-0.056444 -0.189088,-0.1072443 l -0.31327,-0.1354662 q -0.129822,-0.053622 -0.169333,-0.115711 -0.03951,-0.064911 -0.03951,-0.1580444 0,-0.045155 0.0085,-0.087489 0.01129,-0.042333 0.03669,-0.073378 0.02822,-0.033867 0.07338,-0.053622 0.04516,-0.019755 0.112889,-0.019755 0.118533,0 0.169333,0.079022 0.0508,0.0762 0.0508,0.2201332 h 0.389467 v -0.056444 q 0,-0.1439332 -0.04798,-0.2455331 -0.04516,-0.1044222 -0.129822,-0.1693332 -0.08185,-0.067733 -0.197556,-0.095955 -0.112888,-0.031045 -0.248355,-0.031045 -0.290689,0 -0.4572,0.1467555 -0.166511,0.1467554 -0.166511,0.4459108 0,0.1241776 0.03105,0.2201331 0.03104,0.093133 0.09596,0.166511 0.06773,0.070555 0.166511,0.1241777 0.09878,0.053622 0.234244,0.098778 0.1016,0.033867 0.169334,0.067733 0.07055,0.031044 0.112888,0.070556 0.04233,0.039511 0.05927,0.090311 0.01976,0.047978 0.01976,0.1157111 0,0.1269999 -0.0762,0.1890887 -0.07338,0.059267 -0.166511,0.059267 -0.07902,0 -0.132645,-0.022578 -0.0508,-0.022578 -0.08184,-0.062089 -0.03104,-0.039511 -0.04233,-0.095956 -0.01129,-0.059267 -0.01129,-0.1298221 z"
           style="font-weight:bold;font-stretch:condensed;font-size:2.82222px;font-family:'Helvetica Neue';-inkscape-font-specification:'Helvetica Neue, Bold Condensed';display:inline;fill:#ffffff;stroke-width:0.264583"
           id="path2050" />
        <path
           d="M 23.577377,8.7288076 23.2754,8.3195857 q 0.1778,-0.1269999 0.262466,-0.2483553 0.08749,-0.1213555 0.08749,-0.2737554 0,-0.087489 -0.03104,-0.1636887 -0.02822,-0.0762 -0.09031,-0.1326444 -0.06209,-0.059267 -0.158045,-0.090311 -0.09313,-0.033867 -0.222955,-0.033867 -0.112889,0 -0.208844,0.031044 -0.09313,0.028222 -0.160867,0.084667 -0.06773,0.053622 -0.107244,0.1326443 -0.03669,0.0762 -0.03669,0.1749776 0,0.042333 0.0056,0.081844 0.0056,0.039511 0.01976,0.081844 0.01411,0.042333 0.03951,0.090311 0.02822,0.047978 0.07055,0.1100666 l 0.07056,0.1044222 q -0.189089,0.1185332 -0.299155,0.2624664 -0.107245,0.141111 -0.107245,0.3189109 0,0.084667 0.0254,0.1862665 0.0254,0.1016 0.09313,0.1890888 0.06773,0.087489 0.189089,0.1439332 0.121356,0.053622 0.310444,0.053622 0.1524,0 0.2794,-0.047978 0.129822,-0.047978 0.206022,-0.1382887 l 0.112889,0.1552221 h 0.4318 L 23.791866,9.0194963 q 0.09031,-0.1298221 0.146756,-0.2793998 0.05927,-0.1523999 0.05927,-0.3160886 h -0.349955 q 0,0.064911 -0.01976,0.1523999 -0.01975,0.087489 -0.0508,0.1523998 z m -0.57291,-0.2201331 0.338666,0.4797774 q -0.1016,0.1269999 -0.262466,0.1269999 -0.06773,0 -0.121356,-0.022578 -0.05362,-0.0254 -0.09031,-0.062089 -0.03387,-0.039511 -0.05362,-0.087489 -0.01693,-0.047978 -0.01693,-0.093133 0,-0.093133 0.04233,-0.1721554 0.04516,-0.079022 0.163689,-0.1693332 z m -0.06209,-0.7196661 q 0,-0.079022 0.04798,-0.1213555 0.0508,-0.042333 0.124177,-0.042333 0.07902,0 0.127,0.045155 0.0508,0.042333 0.0508,0.1241777 0,0.053622 -0.03104,0.1100666 -0.02822,0.053622 -0.09596,0.1100666 l -0.07338,0.062089 -0.04798,-0.067733 q -0.1016,-0.1354665 -0.1016,-0.2201331 z"
           style="font-weight:bold;font-stretch:condensed;font-size:2.82222px;font-family:'Helvetica Neue';-inkscape-font-specification:'Helvetica Neue, Bold Condensed';display:inline;fill:#ffffff;stroke-width:0.264583"
           id="path2052" />
        <path
           d="m 24.189795,7.3769642 v 2.0150652 h 0.4064 V 8.4973856 h 0.474133 v 0.8946438 h 0.406399 V 7.3769642 H 25.070328 V 8.1474303 H 24.596195 V 7.3769642 Z"
           style="font-weight:bold;font-stretch:condensed;font-size:2.82222px;font-family:'Helvetica Neue';-inkscape-font-specification:'Helvetica Neue, Bold Condensed';display:inline;fill:#ffffff;stroke-width:0.264583"
           id="path2054" />
      </g>
    </g>
    <g
       inkscape:groupmode="layer"
       id="layer2"
       inkscape:label="components"
       style="display:none">
      <circle
         style="fill:#ff0000;stroke-width:0.264583"
         id="circle2406-4"
         cx="22.237049"
         cy="102.82085"
         r="1.6405072"
         inkscape:label="param1" />
      <circle
         style="fill:#00ff00;stroke-width:0.264583"
         id="circle714"
         cx="8.1603851"
         cy="102.82085"
         r="1.6405072"
         inkscape:label="input1" />
      <circle
         style="display:inline;fill:#00ff00;stroke-width:0.264583"
         id="circle2304"
         cx="8.1374168"
         cy="89.711815"
         r="1.6405072"
         inkscape:label="gate8" />
      <circle
         style="display:inline;fill:#00ff00;stroke-width:0.264583"
         id="circle2306"
         cx="8.1374168"
         cy="80.564407"
         r="1.6405072"
         inkscape:label="gate7" />
      <circle
         style="display:inline;fill:#00ff00;stroke-width:0.264583"
         id="circle2300"
         cx="8.1374168"
         cy="71.065453"
         r="1.6405072"
         inkscape:label="gate6" />
      <circle
         style="display:inline;fill:#00ff00;stroke-width:0.264583"
         id="circle2302"
         cx="8.1374168"
         cy="61.918045"
         r="1.6405072"
         inkscape:label="gate5" />
      <circle
         style="display:inline;fill:#00ff00;stroke-width:0.264583"
         id="circle2296"
         cx="8.1376238"
         cy="52.53627"
         r="1.6405072"
         inkscape:label="gate4" />
      <circle
         style="display:inline;fill:#00ff00;stroke-width:0.264583"
         id="circle2298"
         cx="8.1376247"
         cy="43.388859"
         r="1.6405072"
         inkscape:label="gate3" />
      <circle
         style="fill:#00ff00;stroke-width:0.264583"
         id="circle2290"
         cx="8.1376238"
         cy="33.772724"
         r="1.6405072"
         inkscape:label="gate2" />
      <circle
         style="fill:#00ff00;stroke-width:0.264583"
         id="path2184"
         cx="8.1376247"
         cy="24.625313"
         r="1.6405072"
         inkscape:label="gate1" />
      <circle
         style="fill:#0000ff;stroke-width:0.264583"
         id="circle2406"
         cx="22.242508"
         cy="89.711815"
         r="1.6405072"
         inkscape:label="out8" />
      <circle
         style="display:inline;fill:#0000ff;stroke-width:0.264583"
         id="circle2408"
         cx="22.242508"
         cy="80.564407"
         r="1.6405072"
         inkscape:label="out7" />
      <circle
         style="display:inline;fill:#0000ff;stroke-width:0.264583"
         id="circle2402"
         cx="22.242508"
         cy="71.065453"
         r="1.6405072"
         inkscape:label="out6" />
      <circle
         style="display:inline;fill:#0000ff;stroke-width:0.264583"
         id="circle2404"
         cx="22.242508"
         cy="61.918045"
         r="1.6405072"
         inkscape:label="out5" />
      <circle
         style="display:inline;fill:#0000ff;stroke-width:0.264583"
         id="circle2398"
         cx="22.242107"
         cy="52.53627"
         r="1.6405072"
         inkscape:label="out4" />
      <circle
         style="display:inline;fill:#0000ff;stroke-width:0.264583"
         id="circle2400"
         cx="22.242109"
         cy="43.388859"
         r="1.6405072"
         inkscape:label="out3" />
      <circle
         style="display:inline;fill:#0000ff;stroke-width:0.264583"
         id="circle2394"
         cx="22.242107"
         cy="33.772724"
         r="1.6405072"
         inkscape:label="out2" />
      <circle
         style="display:inline;fill:#0000ff;stroke-width:0.264583"
         id="circle2396"
         cx="22.242109"
         cy="24.625313"
         r="1.6405072"
         inkscape:label="out1" />
    </g>
  </g>
</svg>
